<svg width="720" height="244" viewBox="0 0 720 244" xmlns="http://www.w3.org/2000/svg" font-family="-apple-system, BlinkMacSystemFont, &quot;Hiragino Kaku Gothic ProN&quot;, &quot;Hiragino Sans&quot;, &quot;Noto Sans JP&quot;, Meiryo, sans-serif">
  <defs><marker id="a" markerWidth="9" markerHeight="9" refX="7" refY="4.5" orient="auto"><path d="M0,0 L9,4.5 L0,9 z" fill="#8A94A6"/></marker></defs>
  <text x="360" y="26" text-anchor="middle" fill="#6B778C" font-size="13.5">並行に 6 件呼んでも、同時に使える接続はプールの数（4）まで。あふれた分は待つ</text>

  <rect x="20" y="116" width="104" height="54" rx="6" fill="#DEEBFF" stroke="#4C9AFF" stroke-width="1.3"/><text x="72.0" y="147.5" text-anchor="middle" fill="#172B4D" font-size="15">呼び出し側</text>
  <path d="M124,143 L156,143" fill="none" stroke="#8A94A6" stroke-width="1.5" marker-end="url(#a)"/>

  <text x="191" y="108" text-anchor="middle" fill="#6B778C" font-size="12">待ち</text>
  <rect x="158" y="116" width="66" height="24" rx="6" fill="#FFF7E6" stroke="#FFAB00" stroke-width="1.3"/><text x="191.0" y="132.5" text-anchor="middle" fill="#7A4D00" font-size="12">待ち</text>
  <rect x="158" y="146" width="66" height="24" rx="6" fill="#FFF7E6" stroke="#FFAB00" stroke-width="1.3"/><text x="191.0" y="162.5" text-anchor="middle" fill="#7A4D00" font-size="12">待ち</text>
  <path d="M226,143 L258,143" fill="none" stroke="#8A94A6" stroke-width="1.5" marker-end="url(#a)"/>

  <rect x="262" y="52" width="196" height="176" rx="10" fill="none" stroke="#B3BAC5" stroke-width="1.3"/>
  <text x="360" y="74" text-anchor="middle" fill="#6B778C" font-size="14">接続プール（最大 4）</text>
  <rect x="280" y="84" width="160" height="26" rx="6" fill="#E3FCEF" stroke="#57D9A3" stroke-width="1.3"/><text x="360.0" y="101.5" text-anchor="middle" fill="#186A3B" font-size="12">使用中</text>
  <rect x="280" y="116" width="160" height="26" rx="6" fill="#E3FCEF" stroke="#57D9A3" stroke-width="1.3"/><text x="360.0" y="133.5" text-anchor="middle" fill="#186A3B" font-size="12">使用中</text>
  <rect x="280" y="148" width="160" height="26" rx="6" fill="#E3FCEF" stroke="#57D9A3" stroke-width="1.3"/><text x="360.0" y="165.5" text-anchor="middle" fill="#186A3B" font-size="12">使用中</text>
  <rect x="280" y="180" width="160" height="26" rx="6" fill="#E3FCEF" stroke="#57D9A3" stroke-width="1.3"/><text x="360.0" y="197.5" text-anchor="middle" fill="#186A3B" font-size="12">使用中</text>
  <path d="M458,143 L548,143" fill="none" stroke="#8A94A6" stroke-width="1.5" marker-end="url(#a)"/>

  <ellipse cx="606" cy="78" rx="40" ry="11" fill="none" stroke="#A5AEBC" stroke-width="1.3"/>
  <path d="M566,78 L566,206 A40,11 0 0 0 646,206 L646,78" fill="none" stroke="#A5AEBC" stroke-width="1.3"/>
  <text x="606" y="147" text-anchor="middle" fill="#6B778C" font-size="15">DB</text>
  <text x="606" y="232" text-anchor="middle" fill="#6B778C" font-size="11.5">外部 API でも同じ</text>
</svg>
